# xmcd CD database file generated by Grip 3.2.0
# 
# Track frame offsets:
#       150
#       13474
#       28229
#       47648
#       63234
#       76116
#       88754
#       100448
#       115555
#       132572
#       148346
#       158323
#       166931
# 
# Disc length: 2393 seconds
# 
# Revision: 2
# Processed by: cddbd v1.5.1PL0 Copyright (c) Steve Scherf et al.
# Submitted via: Grip 3.2.0
# 
DISCID=a909570d
DTITLE=Stan Hirsch - No Room to Reason
DYEAR=1900
DGENRE=Blues
TTITLE0=A Spell Been Cast
TTITLE1=No Room to Reason
TTITLE2=Darkest Clouds, Saddest Rain
TTITLE3=Troublin Storm
TTITLE4=What I'm Sayin
TTITLE5=Toss, Turn, Cry Your Name
TTITLE6=Call Me Your Man
TTITLE7=Slow Down Satan
TTITLE8=Look Out In Wonder
TTITLE9=I Play it All the Time
TTITLE10=In Them Olden Days
TTITLE11=Ragweed
TTITLE12=The Past Will Let Go
EXTD=
EXTT0=
EXTT1=
EXTT2=
EXTT3=
EXTT4=
EXTT5=
EXTT6=
EXTT7=
EXTT8=
EXTT9=
EXTT10=
EXTT11=
EXTT12=
PLAYORDER=
